<svg height="48" viewBox="0 0 192 192" width="48" xmlns="http://www.w3.org/2000/svg"
    xmlns:xlink="http://www.w3.org/1999/xlink">
    <clipPath id="b">
        <circle cx="96" cy="96" r="88" />
    </clipPath>
    <linearGradient id="c" gradientUnits="userSpaceOnUse" x1="29.337" x2="81.837" y1="75.021" y2="44.354">
        <stop offset="0" stop-color="#a52714" stop-opacity=".6" />
        <stop offset=".66" stop-color="#a52714" stop-opacity="0" />
    </linearGradient>
    <linearGradient id="d" gradientUnits="userSpaceOnUse" x1="110.872" x2="52.538" y1="164.495" y2="130.329">
        <stop offset="0" stop-color="#055524" stop-opacity=".4" />
        <stop offset=".33" stop-color="#055524" stop-opacity="0" />
    </linearGradient>
    <clipPath id="e">
        <path d="M8 184h83.77l38.88-38.88V116H61.36L8 24.48z" />
    </clipPath>
    <linearGradient id="f" gradientUnits="userSpaceOnUse" x1="121.858" x2="136.547" y1="49.804" y2="114.13">
        <stop offset="0" stop-color="#ea6100" stop-opacity=".3" />
        <stop offset=".66" stop-color="#ea6100" stop-opacity="0" />
    </linearGradient>
    <clipPath id="g">
        <path d="M96 56l34.65 60-38.88 68H184V56z" />
    </clipPath>
    <linearGradient id="a">
        <stop offset="0" stop-color="#3e2723" stop-opacity=".2" />
        <stop offset="1" stop-color="#3e2723" stop-opacity="0" />
    </linearGradient>
    <radialGradient id="h" cx="92.176" cy="55.948" gradientUnits="userSpaceOnUse" r="84.078" xlink:href="#a" />
    <clipPath id="i">
        <path d="M21.97 8v40.34L61.36 116 96 56h88V8z" />
    </clipPath>
    <radialGradient id="j" cx="21.875" cy="48.52" gradientUnits="userSpaceOnUse" r="78.044" xlink:href="#a" />
    <radialGradient id="k" cx="95.844" cy="96.138" gradientUnits="userSpaceOnUse" r="87.87">
        <stop offset="0" stop-color="#263238" stop-opacity=".2" />
        <stop offset="1" stop-color="#263238" stop-opacity="0" />
    </radialGradient>
    <radialGradient id="l" cx="34.286" cy="32.014" gradientUnits="userSpaceOnUse" r="176.746">
        <stop offset="0" stop-color="#fff" stop-opacity=".1" />
        <stop offset="1" stop-color="#fff" stop-opacity="0" />
    </radialGradient>
    <g clip-path="url(#b)">
        <path d="M21.97 8v108h39.39L96 56h88V8z" fill="#db4437" />
        <path d="M21.97 8v108h39.39L96 56h88V8z" fill="url(#c)" />
    </g>
    <path clip-path="url(#b)" d="M62.31 115.65L22.48 47.34l-.58 1 39.54 67.8z" fill="#3e2723" fill-opacity=".15" />
    <g clip-path="url(#b)">
        <path d="M8 184h83.77l38.88-38.88V116H61.36L8 24.48z" fill="#0f9d58" />
        <path d="M8 184h83.77l38.88-38.88V116H61.36L8 24.48z" fill="url(#d)" />
    </g>
    <path clip-path="url(#b)" d="M129.84 117.33l-.83-.48L90.62 184h1.15l38.1-66.64z" fill="#263238"
        fill-opacity=".15" />
    <g clip-path="url(#b)">
        <g clip-path="url(#e)">
            <path d="M96 56l34.65 60-38.88 68H184V56z" fill="#ffcd40" />
            <path d="M96 56l34.65 60-38.88 68H184V56z" fill="url(#f)" />
        </g>
    </g>
    <g clip-path="url(#b)">
        <path d="M96 56l34.65 60-38.88 68H184V56z" fill="#ffcd40" />
        <path d="M96 56l34.65 60-38.88 68H184V56z" fill="url(#f)" />
    </g>
    <g clip-path="url(#b)">
        <g clip-path="url(#g)">
            <path d="M21.97 8v108h39.39L96 56h88V8z" fill="#db4437" />
            <path d="M21.97 8v108h39.39L96 56h88V8z" fill="url(#c)" />
        </g>
    </g>
    <path clip-path="url(#b)" d="M96 56v20.95L174.4 56z" fill="url(#h)" />
    <g clip-path="url(#b)">
        <g clip-path="url(#i)">
            <path d="M8 184h83.77l38.88-38.88V116H61.36L8 24.48z" fill="#0f9d58" />
            <path d="M8 184h83.77l38.88-38.88V116H61.36L8 24.48z" fill="url(#d)" />
        </g>
    </g>
    <path clip-path="url(#b)" d="M21.97 48.45l57.25 57.24L61.36 116z" fill="url(#j)" />
    <path clip-path="url(#b)" d="M91.83 183.89l20.96-78.2L130.65 116z" fill="url(#k)" />
    <g clip-path="url(#b)">
        <circle cx="96" cy="96" fill="#f1f1f1" r="40" />
        <circle cx="96" cy="96" fill="#4285f4" r="32" />
    </g>
    <g clip-path="url(#b)">
        <path d="M96 55c-22.09 0-40 17.91-40 40v1c0-22.09 17.91-40 40-40h88v-1z" fill="#3e2723" fill-opacity=".2" />
        <path
            d="M130.6 116c-6.92 11.94-19.81 20-34.6 20-14.8 0-27.69-8.06-34.61-20h-.04L8 24.48v1L61.36 117h.04c6.92 11.94 19.81 20 34.61 20 14.79 0 27.68-8.05 34.6-20h.05v-1z"
            fill="#fff" fill-opacity=".1" />
        <path
            d="M97 56c-.17 0-.33.02-.5.03C118.36 56.3 136 74.08 136 96s-17.64 39.7-39.5 39.97c.17 0 .33.03.5.03 22.09 0 40-17.91 40-40s-17.91-40-40-40z"
            fill="#3e2723" opacity=".1" />
        <path
            d="M131 117.33c3.4-5.88 5.37-12.68 5.37-19.96 0-4.22-.66-8.28-1.87-12.09.95 3.42 1.5 7.01 1.5 10.73 0 7.28-1.97 14.08-5.37 19.96l.02.04-38.88 68h1.16l38.09-66.64z"
            fill="#fff" fill-opacity=".2" />
    </g>
    <g clip-path="url(#b)">
        <path
            d="M96 9c48.43 0 87.72 39.13 87.99 87.5 0-.17.01-.33.01-.5 0-48.6-39.4-88-88-88S8 47.4 8 96c0 .17.01.33.01.5C8.28 48.13 47.57 9 96 9z"
            fill="#fff" fill-opacity=".2" />
        <path
            d="M96 183c48.43 0 87.72-39.13 87.99-87.5 0 .17.01.33.01.5 0 48.6-39.4 88-88 88S8 144.6 8 96c0-.17.01-.33.01-.5C8.28 143.87 47.57 183 96 183z"
            fill="#3e2723" fill-opacity=".15" />
    </g>
    <circle cx="96" cy="96" fill="url(#l)" r="88" />
    <path d="M0 0h192v192H0z" fill="none" />
</svg>