<svg width="512" height="512" viewBox="0 0 512 512" fill="none" xmlns="http://www.w3.org/2000/svg">
<rect width="512" height="512" rx="128" fill="#FCEE21"/>
<path d="M443.2 255.998C443.2 359.828 359.029 444 255.202 444C151.371 444 67.2 359.828 67.2 255.998C67.2 152.165 151.371 68 255.202 68C359.029 68 443.2 152.165 443.2 255.998Z" fill="#FCEE21"/>
<path d="M451.871 162.236C440.508 141.141 424.044 124.374 405.514 115.017C386.538 105.426 367.633 104.694 352.285 112.96C350.302 114.026 348.413 115.227 346.618 116.552L184.544 233.368C177.217 238.578 172.609 246.487 171.618 255.259L120.991 287.813C112.973 292.97 108.369 302.091 108.977 311.61C109.097 313.498 109.292 315.589 109.593 317.83L82.456 331.226C82.0279 330.809 81.5585 330.427 81.029 330.111C78.5804 328.647 75.5385 328.67 73.0899 330.164L61.741 337.108C58.6127 339.026 56.72 342.479 56.8026 346.12C57.0767 357.771 60.7195 386.23 88.5999 398.857C89.9894 399.484 91.4804 399.795 92.9675 399.795C94.6462 399.795 96.3099 399.397 97.8008 398.609L106.213 394.157C108.545 392.93 110.07 390.629 110.295 388.005C110.325 387.66 110.269 387.322 110.254 386.981L140.669 371.235C141.736 372 142.783 372.781 143.925 373.517C148.154 376.242 153.006 377.627 157.91 377.627C161.549 377.623 165.222 376.865 168.692 375.318L222.542 351.379C222.647 351.439 222.744 351.506 222.85 351.566C227.623 354.359 233.038 355.77 238.491 355.77C242.723 355.77 246.978 354.918 250.967 353.199L431.134 275.554C433.575 274.721 435.956 273.707 438.25 272.472C453.599 264.211 463.389 248.033 465.819 226.92C468.193 206.302 463.243 183.327 451.871 162.236Z" fill="#1B1464"/>
<path d="M102.72 387.555L94.3045 392.01C93.5196 392.423 92.5394 392.438 91.6869 392.055C67.6634 381.177 64.5126 356.187 64.276 345.947C64.2497 344.952 64.7754 344.006 65.6429 343.477L76.9919 336.533L77.1984 336.522C77.3599 336.62 77.3524 336.773 77.3487 336.841C75.9066 362.489 92.6446 379.372 102.75 387.153" fill="#057DBC"/>
<path d="M100.388 330.704L84.792 338.403C84.3488 352.531 90.365 363.596 97.0385 371.46L116.394 361.438C106.765 352.812 102.826 341.221 100.388 330.704Z" fill="#01AEF0"/>
<path d="M110.964 325.483L100.388 330.704C102.826 341.221 106.765 352.812 116.394 361.438L97.0384 371.46C100.234 375.228 103.577 378.268 106.442 380.543L134.251 366.145C120.191 353.544 113.799 338.151 110.964 325.483Z" fill="#057DBC"/>
<path d="M171.284 264.354L157.077 273.49C157.527 295.346 161.576 322.214 188.551 340.835L140.917 362.012C143.091 363.825 145.412 365.586 147.977 367.237C153.216 370.619 159.826 371.088 165.654 368.498L214.997 346.563C178.888 321.636 171.595 287.036 171.284 264.354Z" fill="#057DBC"/>
<path d="M157.077 273.49L125.035 294.092C119.293 297.782 115.996 304.313 116.435 311.133C117.404 326.343 122.624 346.75 140.917 362.012L188.551 340.835C161.576 322.214 157.527 295.346 157.077 273.49Z" fill="#01AEF0"/>
<path d="M445.296 165.779C434.645 146.024 419.319 130.361 402.142 121.675C394.961 118.053 387.841 115.861 381.006 115.073C383.256 115.936 385.524 116.946 387.792 118.091C404.97 126.769 420.296 142.428 430.946 162.194C441.593 181.953 446.25 203.359 444.049 222.483C441.912 241.048 433.53 255.161 420.457 262.255L414.189 264.954C408.335 266.917 401.98 267.51 395.352 266.782C407.133 271.256 418.557 271.883 428.539 268.542L434.807 265.84C447.879 258.749 456.262 244.633 458.398 226.068C460.599 206.944 455.946 185.537 445.296 165.779Z" fill="#057DBC"/>
<path d="M414.189 264.954L420.457 262.255C433.53 255.161 441.912 241.048 444.049 222.483C446.246 203.359 441.593 181.953 430.946 162.194C420.296 142.428 404.97 126.769 387.792 118.09C385.524 116.946 383.256 115.936 381.006 115.073C379.129 114.862 377.273 114.727 375.444 114.727C368.414 114.727 361.778 116.323 355.826 119.532C354.185 120.414 352.619 121.405 351.128 122.508H351.132L351.03 122.587C340.647 130.293 334.003 143.13 332.133 159.372C329.932 178.481 334.585 199.891 345.236 219.649C355.882 239.404 371.212 255.075 388.39 263.753C390.722 264.931 393.043 265.904 395.352 266.782C401.98 267.51 408.335 266.917 414.189 264.954Z" fill="#01AEF0"/>
<path d="M396.869 143.622C385.464 135.935 374.558 134.193 366.165 138.72C357.768 143.235 353.22 153.298 353.366 167.04C353.501 179.922 357.753 194.76 365.335 208.828C372.913 222.896 382.974 234.607 393.662 241.806C400.91 246.697 407.952 249.174 414.283 249.174C417.911 249.174 421.306 248.36 424.363 246.704C432.764 242.189 437.308 232.13 437.165 218.388C437.03 205.502 432.779 190.668 425.2 176.6C417.618 162.532 407.557 150.817 396.869 143.622Z" fill="#1B1464"/>
<path d="M420.821 240.132C414.989 243.278 406.825 241.671 397.838 235.617C388.138 229.082 378.93 218.313 371.911 205.292C364.895 192.264 360.96 178.657 360.84 166.961C360.723 156.132 363.874 148.434 369.706 145.292C371.659 144.245 373.871 143.716 376.289 143.716C381.096 143.716 386.715 145.784 392.693 149.808C402.394 156.343 411.602 167.115 418.621 180.136C425.64 193.165 429.572 206.771 429.696 218.467C429.808 229.296 426.657 236.99 420.821 240.132Z" fill="white"/>
<path d="M338.656 223.192C327.292 202.101 322.335 179.126 324.708 158.516C325.591 150.836 327.461 143.824 330.206 137.597L188.897 239.441C182.873 243.728 179.226 250.349 178.869 257.616C178.032 274.792 180.905 303.623 204.144 327.656L366.247 257.796C355.469 248.607 345.998 236.81 338.656 223.192Z" fill="#01AEF0"/>
<path d="M385.021 270.419C378.456 267.101 372.158 262.837 366.247 257.796L204.144 327.656C210.171 333.895 217.554 339.818 226.624 345.118C233.061 348.886 241.056 349.34 248.011 346.341L407.426 277.641C400.114 276.639 392.573 274.237 385.021 270.419Z" fill="#057DBC"/>
</svg>