<svg width="384" height="166" viewBox="0 0 384 166" fill="none" xmlns="http://www.w3.org/2000/svg">
<rect y="134" width="384" height="32" rx="8" fill="#333333"/>
<rect x="101" width="182" height="128" rx="8" fill="#555555"/>
<rect x="251" y="135" width="32" height="30" rx="4" fill="#555555"/>
<path fill-rule="evenodd" clip-rule="evenodd" d="M275.432 141.877C276.518 142.425 277.483 143.408 278.149 144.644C278.815 145.879 279.105 147.226 278.966 148.434C278.824 149.671 278.25 150.619 277.351 151.103C277.216 151.175 277.077 151.235 276.934 151.283L266.377 155.833C266.143 155.934 265.894 155.984 265.646 155.984C265.326 155.984 265.009 155.901 264.729 155.737C264.726 155.735 264.723 155.734 264.72 155.732C264.717 155.73 264.715 155.728 264.711 155.726L261.556 157.129C261.353 157.22 261.138 157.264 260.924 157.264C260.637 157.264 260.353 157.183 260.105 157.023C260.052 156.989 260.002 156.953 259.952 156.917C259.939 156.908 259.927 156.899 259.914 156.89L258.132 157.812C258.132 157.819 258.133 157.825 258.133 157.832C258.135 157.845 258.136 157.859 258.134 157.872C258.121 158.026 258.032 158.161 257.895 158.233L257.402 158.494C257.315 158.54 257.218 158.563 257.119 158.563C257.032 158.563 256.945 158.545 256.863 158.508C255.23 157.768 255.016 156.101 255 155.418C254.995 155.205 255.106 155.002 255.29 154.89L255.954 154.483C256.098 154.396 256.276 154.394 256.42 154.48C256.451 154.499 256.478 154.521 256.503 154.545L258.093 153.76C258.076 153.629 258.064 153.507 258.057 153.396C258.022 152.838 258.291 152.304 258.761 152.002L261.728 150.094C261.786 149.58 262.056 149.117 262.485 148.812L271.982 141.967C272.087 141.889 272.197 141.819 272.314 141.756C273.213 141.272 274.321 141.315 275.432 141.877ZM273.127 143.266C273.619 143 274.258 143.103 274.926 143.553C275.552 143.975 276.142 144.661 276.586 145.485C277.03 146.31 277.279 147.179 277.287 147.934C277.295 148.739 277.029 149.328 276.537 149.593C276.358 149.69 276.159 149.738 275.946 149.738C275.575 149.738 275.163 149.593 274.738 149.306C274.112 148.884 273.522 148.198 273.078 147.374C272.634 146.549 272.385 145.68 272.377 144.925C272.368 144.12 272.635 143.53 273.127 143.266Z" fill="#1B1464"/>
<path d="M257.691 157.802L257.198 158.063C257.152 158.087 257.094 158.088 257.044 158.066C255.637 157.428 255.452 155.964 255.438 155.364C255.437 155.306 255.467 155.25 255.518 155.219L256.183 154.812L256.195 154.812C256.205 154.818 256.204 154.827 256.204 154.831C256.12 156.333 257.1 157.323 257.692 157.778" fill="#057DBC"/>
<path d="M257.554 154.471L256.64 154.922C256.614 155.75 256.967 156.398 257.358 156.859L258.492 156.272C257.928 155.766 257.697 155.087 257.554 154.471Z" fill="#01AEF0"/>
<path d="M258.174 154.165L257.554 154.471C257.697 155.087 257.928 155.766 258.492 156.272L257.358 156.859C257.545 157.08 257.741 157.258 257.909 157.391L259.538 156.548C258.714 155.809 258.34 154.907 258.174 154.165Z" fill="#057DBC"/>
<path d="M261.708 150.583L260.876 151.119C260.902 152.399 261.139 153.973 262.72 155.065L259.929 156.305C260.056 156.412 260.192 156.515 260.342 156.612C260.649 156.81 261.037 156.837 261.378 156.685L264.269 155.4C262.154 153.94 261.726 151.912 261.708 150.583Z" fill="#057DBC"/>
<path d="M260.876 151.118L258.998 152.326C258.662 152.542 258.468 152.925 258.494 153.324C258.551 154.215 258.857 155.411 259.929 156.305L262.72 155.065C261.139 153.973 260.902 152.399 260.876 151.118Z" fill="#01AEF0"/>
<path d="M277.763 144.807C277.139 143.65 276.241 142.732 275.235 142.223C274.814 142.011 274.397 141.882 273.996 141.836C274.128 141.887 274.261 141.946 274.394 142.013C275.401 142.522 276.299 143.439 276.923 144.597C277.546 145.755 277.819 147.009 277.69 148.13C277.565 149.218 277.074 150.045 276.308 150.46L275.941 150.618C275.598 150.733 275.225 150.768 274.837 150.725C275.527 150.988 276.197 151.024 276.782 150.829L277.149 150.67C277.915 150.255 278.406 149.428 278.531 148.34C278.66 147.219 278.387 145.965 277.763 144.807Z" fill="#057DBC"/>
<path fill-rule="evenodd" clip-rule="evenodd" d="M276.308 150.46L275.941 150.618C275.598 150.733 275.225 150.768 274.837 150.725C274.702 150.674 274.566 150.617 274.429 150.548C273.423 150.04 272.524 149.121 271.901 147.964C271.277 146.806 271.004 145.552 271.133 144.432C271.242 143.48 271.632 142.728 272.24 142.277L272.246 142.272H272.246C272.333 142.207 272.425 142.149 272.521 142.098C272.87 141.91 273.259 141.816 273.671 141.816C273.778 141.816 273.886 141.824 273.996 141.836C274.128 141.887 274.261 141.946 274.394 142.013C275.401 142.522 276.299 143.439 276.923 144.597C277.546 145.755 277.819 147.009 277.69 148.13C277.565 149.218 277.074 150.045 276.308 150.46ZM274.983 148.899C275.509 149.254 275.988 149.348 276.329 149.164C276.671 148.98 276.856 148.529 276.849 147.895C276.842 147.209 276.612 146.412 276.2 145.649C275.789 144.886 275.25 144.254 274.681 143.872C274.331 143.636 274.002 143.515 273.72 143.515C273.578 143.515 273.449 143.546 273.334 143.607C272.993 143.791 272.808 144.242 272.815 144.877C272.822 145.562 273.052 146.359 273.464 147.123C273.875 147.886 274.414 148.516 274.983 148.899Z" fill="#01AEF0"/>
<path d="M271.515 148.171C270.849 146.936 270.559 145.589 270.698 144.382C270.749 143.932 270.859 143.521 271.02 143.156L262.74 149.124C262.387 149.375 262.173 149.763 262.153 150.188C262.103 151.195 262.272 152.884 263.633 154.292L273.132 150.199C272.5 149.661 271.945 148.969 271.515 148.171Z" fill="#01AEF0"/>
<path d="M274.232 150.939C273.847 150.744 273.478 150.494 273.132 150.199L263.633 154.292C263.987 154.658 264.419 155.005 264.951 155.315C265.328 155.536 265.796 155.563 266.204 155.387L275.544 151.362C275.116 151.303 274.674 151.162 274.232 150.939Z" fill="#057DBC"/>
</svg>
