<svg width="384" height="164" viewBox="0 0 384 164" fill="none" xmlns="http://www.w3.org/2000/svg">
<rect width="384" height="32" rx="8" fill="#333333"/>
<rect x="101" y="1" width="48" height="30" rx="8" fill="#555555"/>
<rect x="101" y="36" width="182" height="128" rx="8" fill="#555555"/>
<path fill-rule="evenodd" clip-rule="evenodd" d="M133.432 8.20498C134.518 8.75328 135.483 9.73571 136.149 10.9717C136.815 12.2075 137.105 13.5537 136.966 14.7618C136.824 15.9989 136.25 16.9468 135.351 17.4309C135.216 17.5033 135.077 17.5627 134.934 17.6115L124.377 22.161C124.143 22.2617 123.894 22.3116 123.646 22.3116C123.326 22.3116 123.009 22.229 122.729 22.0653C122.726 22.0636 122.723 22.0617 122.72 22.0598C122.717 22.058 122.715 22.0561 122.711 22.0543L119.556 23.4571C119.353 23.5477 119.138 23.5921 118.924 23.5923C118.637 23.5923 118.353 23.5112 118.105 23.3515C118.052 23.3171 118.002 23.281 117.952 23.245C117.939 23.2359 117.927 23.2268 117.914 23.2178L116.132 24.1404C116.132 24.1469 116.133 24.1533 116.133 24.1598C116.135 24.1732 116.136 24.1867 116.134 24.2004C116.121 24.3542 116.032 24.489 115.895 24.5609L115.402 24.8217C115.315 24.8679 115.218 24.8912 115.119 24.8912C115.032 24.8912 114.945 24.873 114.863 24.8362C113.23 24.0964 113.016 22.4289 113 21.7462C112.995 21.5329 113.106 21.3305 113.29 21.2181L113.954 20.8113C114.098 20.7237 114.276 20.7224 114.42 20.8082C114.451 20.8267 114.478 20.8491 114.503 20.8735L116.093 20.0886C116.076 19.9573 116.064 19.8348 116.057 19.7241C116.022 19.1664 116.291 18.632 116.761 18.3298L119.728 16.4223C119.786 15.9083 120.056 15.4449 120.485 15.1397L129.982 8.29494C130.087 8.2173 130.197 8.14692 130.314 8.08446C131.213 7.60017 132.321 7.64306 133.432 8.20498ZM131.127 9.59385C131.619 9.32862 132.258 9.43066 132.926 9.88108C133.552 10.3027 134.142 10.9891 134.586 11.8134C135.03 12.6377 135.279 13.5069 135.287 14.2619C135.295 15.0671 135.029 15.6565 134.537 15.9211C134.358 16.0181 134.159 16.0658 133.946 16.0658C133.575 16.0658 133.163 15.9206 132.738 15.6341C132.112 15.2122 131.522 14.526 131.078 13.7017C130.634 12.8774 130.385 12.008 130.377 11.2532C130.368 10.4481 130.635 9.85843 131.127 9.59385Z" fill="white"/>
<path d="M115.691 24.1301L115.198 24.3912C115.152 24.4154 115.094 24.4163 115.044 24.3938C113.637 23.7565 113.452 22.2922 113.438 21.6922C113.437 21.6339 113.467 21.5785 113.518 21.5475L114.183 21.1406L114.195 21.14C114.205 21.1457 114.204 21.1547 114.204 21.1586C114.12 22.6614 115.1 23.6507 115.692 24.1066" fill="white"/>
<path d="M115.554 20.799L114.64 21.2501C114.614 22.0779 114.967 22.7263 115.358 23.1871L116.492 22.5998C115.928 22.0944 115.697 21.4153 115.554 20.799Z" fill="white"/>
<path d="M116.174 20.4931L115.554 20.7991C115.697 21.4153 115.928 22.0945 116.492 22.5999L115.358 23.1871C115.545 23.4079 115.741 23.586 115.909 23.7193L117.538 22.8757C116.714 22.1373 116.34 21.2354 116.174 20.4931Z" fill="white"/>
<path d="M119.708 16.9113L118.876 17.4466C118.902 18.7273 119.139 20.3016 120.72 21.3927L117.929 22.6335C118.056 22.7397 118.192 22.8429 118.342 22.9397C118.649 23.1378 119.037 23.1653 119.378 23.0135L122.269 21.7283C120.154 20.2677 119.726 18.2404 119.708 16.9113Z" fill="white"/>
<path d="M118.876 17.4466L116.998 18.6538C116.662 18.87 116.469 19.2527 116.494 19.6523C116.551 20.5435 116.857 21.7393 117.929 22.6335L120.72 21.3926C119.139 20.3016 118.902 18.7273 118.876 17.4466Z" fill="white"/>
<path d="M135.763 11.1355C135.139 9.97796 134.241 9.06018 133.235 8.55126C132.814 8.33902 132.397 8.21058 131.996 8.1644C132.128 8.21498 132.261 8.27414 132.394 8.34122C133.401 8.84971 134.299 9.76726 134.923 10.9254C135.546 12.0831 135.819 13.3374 135.69 14.458C135.565 15.5458 135.074 16.3727 134.308 16.7884L133.941 16.9465C133.598 17.0615 133.225 17.0963 132.837 17.0536C133.527 17.3158 134.197 17.3525 134.782 17.1568L135.149 16.9984C135.915 16.583 136.406 15.7558 136.531 14.668C136.66 13.5475 136.387 12.2932 135.763 11.1355Z" fill="white"/>
<path fill-rule="evenodd" clip-rule="evenodd" d="M134.308 16.7884L133.941 16.9465C133.598 17.0615 133.225 17.0963 132.837 17.0536C132.702 17.0021 132.566 16.9452 132.429 16.8761C131.423 16.3676 130.524 15.4494 129.901 14.2919C129.276 13.1342 129.004 11.8797 129.133 10.76C129.242 9.80839 129.632 9.05622 130.24 8.6047L130.246 8.60008H130.246C130.333 8.53542 130.425 8.47736 130.521 8.42568C130.87 8.23764 131.259 8.14417 131.671 8.14417C131.778 8.14417 131.886 8.15208 131.996 8.1644C132.128 8.21498 132.261 8.27414 132.394 8.34122C133.401 8.84971 134.299 9.76726 134.923 10.9254C135.546 12.0831 135.819 13.3374 135.69 14.458C135.565 15.5458 135.074 16.3727 134.308 16.7884ZM132.983 15.2275C133.509 15.5823 133.988 15.6764 134.329 15.4921C134.671 15.308 134.856 14.8572 134.849 14.2226C134.842 13.5373 134.612 12.7401 134.2 11.9767C133.789 11.2138 133.25 10.5826 132.681 10.1997C132.331 9.96389 132.002 9.8427 131.72 9.8427C131.578 9.8427 131.449 9.87371 131.334 9.93507C130.993 10.1192 130.808 10.5702 130.815 11.2047C130.822 11.89 131.052 12.6873 131.464 13.4507C131.875 14.2136 132.414 14.8446 132.983 15.2275Z" fill="white"/>
<path d="M129.515 14.4996C128.849 13.2638 128.559 11.9176 128.698 10.7099C128.749 10.2599 128.859 9.84909 129.02 9.48422L120.74 15.4516C120.387 15.7028 120.173 16.0908 120.153 16.5165C120.103 17.523 120.272 19.2123 121.633 20.6205L131.132 16.5271C130.5 15.9887 129.945 15.2975 129.515 14.4996Z" fill="white"/>
<path d="M132.232 17.2667C131.847 17.0723 131.478 16.8225 131.132 16.5271L121.633 20.6205C121.987 20.986 122.419 21.3331 122.951 21.6436C123.328 21.8644 123.796 21.891 124.204 21.7153L133.544 17.6899C133.116 17.6312 132.674 17.4904 132.232 17.2667Z" fill="white"/>
</svg>
